# xmcd
#
# Track frame offsets: 
#        150
#        39822
#        54442
#        74169
#        95573
#        119458
#        187684
#        206702
#
# Disc length: 2935 seconds
#
# Revision: 4
# Processed by: cddbd v1.5.2PL0 Copyright (c) Steve Scherf et al.
# Submitted via: ExactAudioCopy v0.95b4
#
DISCID=6d0b7508
DTITLE=Blind Faith - Blind Faith
DYEAR=1969
DGENRE=Blues
TTITLE0=Had to cry today
TTITLE1=Can't find my way home
TTITLE2=Well all right
TTITLE3=Presence of the Lord
TTITLE4=Sea of joy
TTITLE5=Do what you like
TTITLE6=Exchange and mart
TTITLE7=Spending all my days
EXTD=
EXTT0=
EXTT1=
EXTT2=
EXTT3=
EXTT4=
EXTT5=
EXTT6=
EXTT7=
PLAYORDER=
